<svg xmlns="http://www.w3.org/2000/svg" width="40.5" height="36" viewBox="0 0 40.5 36"><defs><style>.a{fill:#fff;}</style></defs><path class="a" d="M13.5,34.875A1.128,1.128,0,0,0,14.625,36h2.25A1.128,1.128,0,0,0,18,34.875V22.5H13.5ZM15.75,15.75H12.171L8.993,12.565A4.468,4.468,0,0,0,5.815,11.25H4.5A4.5,4.5,0,0,0,0,15.757L.014,22.5,0,33.75a2.246,2.246,0,1,0,4.493,0L4.5,26.67c.063.035.113.091.176.12l2.046,3.023V33.75a2.25,2.25,0,1,0,4.5,0V29.777a4.519,4.519,0,0,0-.471-2.011l-2.9-4.31V17.789l1.47,1.47a3.346,3.346,0,0,0,2.384.991H15.75a2.25,2.25,0,0,0,0-4.5ZM4.5,9A3.375,3.375,0,1,0,1.125,5.625,3.376,3.376,0,0,0,4.5,9ZM20.25,2.25l2.215,15.687-2.173,10.87A2.25,2.25,0,0,0,22.5,31.5a2.291,2.291,0,0,0,2.271-2.138,2.241,2.241,0,0,0,4.479-.112,2.25,2.25,0,0,0,4.5,0V0H20.25Zm-6.75,0V13.5H18V0H15.75A2.248,2.248,0,0,0,13.5,2.25ZM38.25,0H36V34.875A1.128,1.128,0,0,0,37.125,36h2.25A1.128,1.128,0,0,0,40.5,34.875V2.25A2.248,2.248,0,0,0,38.25,0Z"/></svg>