<svg xmlns="http://www.w3.org/2000/svg" width="46.898" height="32.829" viewBox="0 0 46.898 32.829"><defs><style>.a{fill:#fff;}</style></defs><path class="a" d="M14.069,18.664a8.207,8.207,0,1,0-8.207-8.207A8.2,8.2,0,0,0,14.069,18.664ZM19.7,21.009h-.608a11.331,11.331,0,0,1-10.039,0H8.442A8.444,8.444,0,0,0,0,29.451v2.11a3.518,3.518,0,0,0,3.517,3.517h21.1a3.518,3.518,0,0,0,3.517-3.517v-2.11A8.444,8.444,0,0,0,19.7,21.009Zm15.476-2.345a7.035,7.035,0,1,0-7.035-7.035A7.037,7.037,0,0,0,35.173,18.664Zm3.517,2.345h-.278a9.241,9.241,0,0,1-6.478,0h-.278a8.139,8.139,0,0,0-4.082,1.128,10.724,10.724,0,0,1,2.909,7.313v2.814c0,.161-.037.315-.044.469H43.381A3.518,3.518,0,0,0,46.9,29.216a8.2,8.2,0,0,0-8.207-8.207Z" transform="translate(0 -2.25)"/></svg>